Coordinates
version=1
nRows=32
nColumns=34
inDegrees=no

Units are S.I. units (second, meters, Newtons, ...)
If the header above contains a line with 'inDegrees', this indicates whether rotational values are in degrees (yes) or radians (no).

endheader
time	pelvis_tilt	pelvis_list	pelvis_rotation	pelvis_tx	pelvis_ty	pelvis_tz	hip_flexion_r	hip_adduction_r	hip_rotation_r	knee_angle_r	ankle_angle_r	subtalar_angle_r	mtp_angle_r	hip_flexion_l	hip_adduction_l	hip_rotation_l	knee_angle_l	ankle_angle_l	subtalar_angle_l	mtp_angle_l	lumbar_extension	lumbar_bending	lumbar_rotation	arm_flex_r	arm_add_r	arm_rot_r	elbow_flex_r	pro_sup_r	arm_flex_l	arm_add_l	arm_rot_l	elbow_flex_l	pro_sup_l
1.9	-0.33539	-0.107767	-0.016551	-0.354878	0.58888	-0.58667	1.56951	-0.189069	-0.0672952	1.88695	0.61184	-0.195047	-0.120099	1.67216	-0.17154	0.206502	1.94337	0.674895	-0.0217489	-0.120094	-0.607535	0.0779356	-0.0016276	0.308752	-0.285511	0.407398	0.409496	1.64929	0.277848	-0.306634	0.0601772	0.359612	1.12351
1.91	-0.336876	-0.110808	-0.0127079	-0.353865	0.598582	-0.58666	1.54831	-0.186312	-0.0753039	1.8592	0.603567	-0.204207	-0.120099	1.65254	-0.171417	0.203621	1.91582	0.669672	-0.0223647	-0.120094	-0.598641	0.0823455	-0.00297095	0.326017	-0.274686	0.384752	0.430701	1.61782	0.324615	-0.309796	0.0928683	0.353667	1.11184
1.92	-0.33838	-0.114142	-0.00919015	-0.352943	0.608754	-0.586705	1.52604	-0.182986	-0.0835994	1.82951	0.594745	-0.213392	-0.120099	1.63181	-0.170967	0.201582	1.88658	0.66381	-0.0245782	-0.120094	-0.588802	0.0870275	-0.00452918	0.348028	-0.265416	0.362344	0.453197	1.57632	0.373218	-0.311259	0.12239	0.350913	1.09958
1.93	-0.339848	-0.117489	-0.00586123	-0.352105	0.61935	-0.586825	1.50277	-0.179201	-0.0917927	1.79805	0.585473	-0.222524	-0.120099	1.60981	-0.169669	0.200361	1.85567	0.65722	-0.0289415	-0.120094	-0.578091	0.0917395	-0.00628052	0.374166	-0.258092	0.339372	0.478476	1.52641	0.423183	-0.310865	0.146551	0.353573	1.08727
1.94	-0.341207	-0.120531	-0.00250507	-0.351336	0.630319	-0.587034	1.47856	-0.175204	-0.0995215	1.76502	0.57582	-0.231493	-0.120099	1.58634	-0.167084	0.199764	1.82311	0.649812	-0.0357089	-0.120094	-0.566582	0.0962129	-0.00838733	0.40378	-0.253083	0.315194	0.508321	1.47127	0.473894	-0.308775	0.16382	0.364249	1.07575
1.95	-0.342384	-0.122968	0.00115889	-0.350617	0.641602	-0.58734	1.45348	-0.171343	-0.106504	1.73062	0.565812	-0.240189	-0.120099	1.56132	-0.162999	0.199389	1.7889	0.641534	-0.044635	-0.120094	-0.554328	0.1002	-0.0111863	0.436307	-0.250701	0.28959	0.544496	1.41533	0.524618	-0.305579	0.17397	0.385781	1.06571
1.96	-0.343325	-0.124562	0.00544086	-0.34992	0.653132	-0.587737	1.42757	-0.168008	-0.112569	1.69501	0.555415	-0.248528	-0.120099	1.53481	-0.157589	0.198578	1.75305	0.632406	-0.0547741	-0.120094	-0.541354	0.103509	-0.0151424	0.471357	-0.251181	0.262942	0.588471	1.36337	0.574571	-0.302316	0.178338	0.421007	1.0574
1.97	-0.344018	-0.125161	0.0106374	-0.349207	0.664833	-0.588203	1.40091	-0.165573	-0.117659	1.65833	0.544535	-0.256482	-0.120099	1.50706	-0.151496	0.196412	1.71564	0.622546	-0.0644241	-0.120094	-0.527623	0.106019	-0.020779	0.508732	-0.254684	0.236302	0.641274	1.31935	0.623022	-0.300338	0.179511	0.472427	1.05058
1.98	-0.344533	-0.124709	0.0169741	-0.348413	0.676639	-0.588701	1.37362	-0.164324	-0.12182	1.62067	0.533027	-0.264106	-0.120099	1.47848	-0.145715	0.191844	1.67672	0.612159	-0.0714228	-0.120094	-0.512992	0.107682	-0.0285627	0.548377	-0.261316	0.211192	0.703439	1.28574	0.669397	-0.301047	0.180529	0.541775	1.04485
1.99	-0.345022	-0.123243	0.0245047	-0.347451	0.688502	-0.589201	1.34582	-0.16437	-0.125171	1.58208	0.520731	-0.271516	-0.120099	1.44951	-0.141274	0.18401	1.63642	0.601484	-0.0738592	-0.120094	-0.497193	0.108488	-0.038734	0.590254	-0.271157	0.189258	0.775047	1.26333	0.713365	-0.305549	0.183927	0.629607	1.04009
2	-0.345657	-0.120872	0.0329924	-0.346218	0.700383	-0.589683	1.31766	-0.165543	-0.127855	1.54261	0.507523	-0.278853	-0.120099	1.42043	-0.138875	0.172595	1.59486	0.590708	-0.0708787	-0.120094	-0.479863	0.10842	-0.0511339	0.634239	-0.28428	0.171906	0.855792	1.25147	0.754858	-0.314389	0.191099	0.735057	1.03667
2.01	-0.346585	-0.117774	0.0418861	-0.344593	0.712256	-0.590122	1.28918	-0.167362	-0.129994	1.50223	0.493343	-0.286265	-0.120099	1.39121	-0.138724	0.158	1.55219	0.579924	-0.063022	-0.120094	-0.460596	0.107436	-0.0651385	0.680073	-0.300738	0.160017	0.945046	1.24857	0.794022	-0.327452	0.202152	0.85584	1.03547
2.02	-0.347917	-0.114179	0.0504596	-0.342433	0.724111	-0.590495	1.26033	-0.169143	-0.131664	1.46086	0.478177	-0.293931	-0.120099	1.36162	-0.140616	0.14118	1.50848	0.569133	-0.0518621	-0.120094	-0.438988	0.105524	-0.0797747	0.727388	-0.320529	0.15381	1.0419	1.25243	0.831139	-0.344041	0.216196	0.988503	1.03758
2.03	-0.349737	-0.110336	0.0580334	-0.339598	0.735968	-0.590784	1.23092	-0.170201	-0.1329	1.41822	0.462022	-0.302045	-0.120099	1.3313	-0.144132	0.123298	1.46371	0.558266	-0.0392701	-0.120094	-0.414672	0.102758	-0.0939461	0.77579	-0.34353	0.152861	1.14515	1.26062	0.866528	-0.363085	0.231817	1.12882	1.04391
2.04	-0.352074	-0.106473	0.0641452	-0.335977	0.747884	-0.590985	1.20063	-0.17003	-0.133724	1.37383	0.444819	-0.310721	-0.120099	1.29981	-0.148794	0.105434	1.4176	0.547147	-0.0268442	-0.120094	-0.387404	0.0993129	-0.106647	0.824928	-0.369453	0.156237	1.25334	1.27071	0.900463	-0.383383	0.247544	1.2722	1.05511
2.05	-0.354835	-0.102754	0.0686129	-0.331498	0.75996	-0.591112	1.16891	-0.168407	-0.134184	1.32699	0.426386	-0.319838	-0.120099	1.2666	-0.154112	0.0884449	1.36965	0.535414	-0.0156867	-0.120094	-0.357167	0.0954289	-0.11709	0.874536	-0.397834	0.162723	1.36477	1.28056	0.933093	-0.403824	0.262223	1.41411	1.07147
2.06	-0.357749	-0.0992504	0.0715131	-0.326123	0.772364	-0.591189	1.13494	-0.16539	-0.134395	1.27676	0.406306	-0.328903	-0.120099	1.23094	-0.159581	0.0729218	1.31905	0.522409	-0.00638473	-0.120095	-0.324264	0.0913557	-0.124757	0.924406	-0.428061	0.171084	1.47759	1.28837	0.964386	-0.423534	0.275212	1.55041	1.09297
2.07	-0.36033	-0.0959388	0.0731139	-0.31984	0.785315	-0.59125	1.0977	-0.161265	-0.1346	1.22203	0.38383	-0.336958	-0.120099	1.19188	-0.164691	0.0591665	1.26476	0.507087	0.000957001	-0.120095	-0.289367	0.0873072	-0.129384	0.974327	-0.459451	0.180292	1.58992	1.29281	0.994089	-0.441937	0.286425	1.67761	1.11924
2.08	-0.3619	-0.0927337	0.0737842	-0.312679	0.799072	-0.591334	1.05597	-0.156444	-0.135251	1.16158	0.357787	-0.342556	-0.120099	1.14828	-0.168958	0.0471621	1.20556	0.487969	0.00668344	-0.120095	-0.253499	0.0834481	-0.130911	1.02398	-0.491319	0.189663	1.70003	1.29292	1.02171	-0.458728	0.296223	1.79308	1.14955
2.09	-0.361675	-0.0895393	0.0738955	-0.304724	0.813877	-0.591484	1.00855	-0.151336	-0.137091	1.09418	0.326585	-0.343814	-0.1201	1.09897	-0.171986	0.0365258	1.14014	0.463161	0.0115652	-0.120095	-0.217934	0.0799072	-0.129394	1.0728	-0.523055	0.198883	1.80649	1.28823	1.0465	-0.473786	0.305243	1.89516	1.18281
2.1	-0.358886	-0.0863015	0.0737353	-0.296091	0.829932	-0.59174	0.954404	-0.146237	-0.141189	1.01876	0.288317	-0.338547	-0.1201	1.04293	-0.173539	0.0264381	1.0673	0.430471	0.0167779	-0.120095	-0.18404	0.0767973	-0.124924	1.11989	-0.554177	0.207931	1.90825	1.27874	1.06752	-0.487073	0.314194	1.98313	1.21767
2.11	-0.352922	-0.0830367	0.0734505	-0.28693	0.847375	-0.592131	0.892965	-0.141264	-0.148915	0.934641	0.241005	-0.32448	-0.1201	0.979515	-0.173586	0.0155793	0.986151	0.387634	0.0238549	-0.120095	-0.153089	0.0742238	-0.117577	1.16389	-0.584336	0.216948	2.00475	1.26505	1.08364	-0.498544	0.323659	2.05715	1.25266
2.12	-0.343466	-0.0798329	0.0730291	-0.277414	0.866267	-0.592663	0.824302	-0.136349	-0.161821	0.841708	0.182979	-0.299572	-0.1201	0.908698	-0.172307	0.0021328	0.896317	0.332636	0.0345684	-0.120095	-0.126057	0.0722742	-0.10743	1.20306	-0.613267	0.226075	2.09576	1.24844	1.09366	-0.508107	0.333918	2.11812	1.28633
2.13	-0.330588	-0.0768037	0.0723262	-0.267747	0.886568	-0.593308	0.749335	-0.131293	-0.181414	0.740731	0.113321	-0.262426	-0.1201	0.831261	-0.170049	-0.0160793	0.798208	0.264127	0.050702	-0.120095	-0.103459	0.0709944	-0.0946259	1.23531	-0.64066	0.235315	2.18128	1.2309	1.09644	-0.515637	0.344806	2.16746	1.31762
2.14	-0.314826	-0.0740319	0.0711287	-0.258149	0.908135	-0.594009	0.669923	-0.125873	-0.208818	0.633577	0.0323073	-0.212743	-0.1201	0.7489	-0.167225	-0.0412898	0.693221	0.181859	0.0737052	-0.120095	-0.0852801	0.0703471	-0.0794898	1.25851	-0.666017	0.244458	2.26125	1.21501	1.09102	-0.521052	0.355642	2.20694	1.3461
2.15	-0.297168	-0.0715413	0.0692241	-0.248854	0.93071	-0.594691	0.588828	-0.119977	-0.244378	0.523363	-0.0582637	-0.15173	-0.1201	0.664209	-0.164183	-0.0753072	0.583881	0.0870789	0.104267	-0.120095	-0.0709863	0.0701647	-0.0626281	1.2708	-0.688536	0.253072	2.3353	1.20379	1.0768	-0.524419	0.365278	2.23854	1.37189
2.16	-0.278945	-0.069281	0.0664682	-0.240097	0.953952	-0.59527	0.509531	-0.113728	-0.287282	0.414419	-0.15497	-0.082338	-0.1201	0.580532	-0.161104	-0.118927	0.473845	-0.0172417	0.141882	-0.120095	-0.0596267	0.070143	-0.0449493	1.27093	-0.707128	0.260563	2.40269	1.20019	1.05363	-0.526009	0.372278	2.26425	1.39547
2.17	-0.261652	-0.067122	0.0628341	-0.232103	0.977453	-0.595662	0.435886	-0.107527	-0.335334	0.312024	-0.253021	-0.00922209	-0.1201	0.501645	-0.157976	-0.171375	0.367716	-0.126452	0.184539	-0.120095	-0.0500252	0.0698911	-0.0275693	1.25853	-0.720573	0.266263	2.46236	1.20623	1.02191	-0.526266	0.37519	2.28595	1.41762
2.18	-0.246726	-0.0648773	0.0584325	-0.225049	1.00069	-0.595813	0.371633	-0.102012	-0.384982	0.221857	-0.346916	0.0616658	-0.1201	0.431311	-0.154658	-0.230008	0.270641	-0.234656	0.228707	-0.120096	-0.041042	0.0690203	-0.011631	1.23426	-0.727772	0.269529	2.51309	1.22235	0.982595	-0.525691	0.372837	2.30523	1.43925
2.19	-0.235274	-0.0623579	0.0534992	-0.218996	1.02312	-0.59571	0.319844	-0.097943	-0.431696	0.149206	-0.431469	0.123861	-0.1201	0.372734	-0.151005	-0.290475	0.187692	-0.335565	0.269776	-0.120096	-0.0318638	0.067224	0.00189215	1.19974	-0.727988	0.269829	2.55385	1.24719	0.937133	-0.524707	0.364562	2.32327	1.46105
2.2	-0.227803	-0.0594171	0.0483613	-0.214027	1.04438	-0.595416	0.282359	-0.0960219	-0.47067	0.0980739	-0.502943	0.171457	-0.1201	0.327981	-0.146981	-0.347425	0.123107	-0.423677	0.302944	-0.120096	-0.0222574	0.0643224	0.0123482	1.15738	-0.721006	0.266839	2.58406	1.2777	0.887363	-0.523564	0.350352	2.3409	1.48321
2.21	-0.223988	-0.0559813	0.043376	-0.210196	1.06444	-0.594946	0.259338	-0.0967213	-0.497655	0.0703783	-0.559798	0.200237	-0.1201	0.297477	-0.142684	-0.395637	0.0795405	-0.495428	0.324308	-0.120096	-0.0128157	0.0602334	0.0194935	1.11	-0.707171	0.260508	2.60379	1.30968	0.83536	-0.522322	0.330869	2.35854	1.50533
